<?xml version="1.0" encoding="utf-8"?>
<!-- Generator: Adobe Illustrator 21.1.0, SVG Export Plug-In . SVG Version: 6.00 Build 0)  -->
<svg version="1.1" id="Layer_1" xmlns="http://www.w3.org/2000/svg" xmlns:xlink="http://www.w3.org/1999/xlink" x="0px" y="0px"
	 viewBox="0 0 360 360" enable-background="new 0 0 360 360" xml:space="preserve">
<g>
	<path fill="#FFFFFF" d="M323.999,180c0-79.529-64.471-144-144-144C100.471,36,36,100.471,36,180
		c0,79.528,64.471,143.999,143.999,143.999C259.528,323.999,323.999,259.528,323.999,180L323.999,180z M257.625,250.78
		c-0.001,4.866-2.324,7.235-7.145,7.237c-47.163,0.015-94.325,0.015-141.487,0c-4.907-0.002-7.134-2.361-7.136-7.443
		c-0.008-23.515-0.004-47.03-0.005-70.545c-0.002-23.382,0.002-46.765-0.007-70.147c-0.001-2.759,0.371-5.396,3.157-6.734
		c1.2-0.577,2.657-0.869,3.997-0.871c47.163-0.042,94.325-0.041,141.487-0.025c4.834,0.002,7.137,2.358,7.139,7.24
		C257.636,156.588,257.636,203.684,257.625,250.78L257.625,250.78z M117.822,242.123c41.399,0,82.644,0,123.976,0
		c0-23.217,0-46.346,0-69.543c-5.581,0-10.993,0-16.585,0c4.985,27.701-16.247,51.72-41.389,53.638
		c-13.346,1.018-25.215-2.743-35.059-11.835c-12.176-11.245-17.046-25.253-14.558-41.717c-5.536,0-10.984,0-16.385,0
		C117.822,195.914,117.822,218.992,117.822,242.123L117.822,242.123z M211.093,148.894c10.301,0,20.415,0,30.689,0
		c0-10.435,0-20.644,0-30.832c-10.349,0-20.512,0-30.689,0C211.093,128.422,211.093,138.629,211.093,148.894L211.093,148.894z
		 M210.755,180.194c0.046-17.223-13.716-31.036-30.953-31.068c-17.239-0.031-31.042,13.719-31.071,30.953
		c-0.03,17.232,13.724,31.037,30.953,31.068C196.92,211.177,210.709,197.441,210.755,180.194L210.755,180.194z"/>
</g>
</svg>
