<?xml version="1.0" encoding="utf-8"?>
<!-- Generator: Adobe Illustrator 21.1.0, SVG Export Plug-In . SVG Version: 6.00 Build 0)  -->
<svg version="1.1" id="Layer_1" xmlns="http://www.w3.org/2000/svg" xmlns:xlink="http://www.w3.org/1999/xlink" x="0px" y="0px"
	 viewBox="0 0 360 360" enable-background="new 0 0 360 360" xml:space="preserve">
<g>
	<path d="M324,181c0-79.523-64.477-144-144-144S36,101.477,36,181c0,79.541,64.477,144,144,144S324,260.541,324,181L324,181z
		 M248.113,152.994c0,38.037-21.161,66.466-52.344,66.466c-10.472,0-20.326-5.649-23.698-12.081c0,0-5.638,22.348-6.824,26.657
		c-4.205,15.256-16.565,30.511-17.512,31.748c-0.671,0.867-2.155,0.599-2.31-0.556c-0.268-1.938-3.422-21.173,0.289-36.862
		c1.865-7.875,12.483-52.859,12.483-52.859s-3.103-6.186-3.103-15.338c0-14.39,8.339-25.111,18.719-25.111
		c8.824,0,13.072,6.618,13.072,14.555c0,8.865-5.64,22.141-8.557,34.429c-2.433,10.287,5.154,18.678,15.308,18.678
		c18.379,0,30.759-23.605,30.759-51.582c0-21.255-14.318-37.17-40.367-37.17c-29.419,0-47.757,21.956-47.757,46.469
		c0,8.452,2.496,14.41,6.402,19.007c1.794,2.124,2.04,2.989,1.391,5.422c-0.474,1.774-1.525,6.082-1.979,7.772
		c-0.638,2.475-2.638,3.34-4.854,2.433c-13.556-5.524-19.865-20.369-19.865-37.067c0-27.543,23.235-60.592,69.332-60.592
		C223.736,97.412,248.113,124.214,248.113,152.994L248.113,152.994z"/>
</g>
</svg>
