<?xml version="1.0" encoding="utf-8"?>
<!-- Generator: Adobe Illustrator 21.1.0, SVG Export Plug-In . SVG Version: 6.00 Build 0)  -->
<svg version="1.1" id="Layer_1" xmlns="http://www.w3.org/2000/svg" xmlns:xlink="http://www.w3.org/1999/xlink" x="0px" y="0px"
	 viewBox="0 0 360 360" enable-background="new 0 0 360 360" xml:space="preserve">
<g>
	<path d="M324,181c0-79.523-64.468-144-144-144c-79.523,0-144,64.477-144,144c0,79.541,64.477,144,144,144
		C259.532,325,324,260.541,324,181L324,181z M192.618,133.151v17.684H219.6l-3.1,30.082h-23.882c0,38.153,0,85.149,0,85.149H157.23
		c0,0,0-46.516,0-85.149H140.4v-30.082h16.83v-19.472c0-13.938,6.616-35.721,35.709-35.721l26.213,0.105v29.208
		c0,0-15.935,0-19.025,0C197.027,124.955,192.618,126.494,192.618,133.151L192.618,133.151z"/>
</g>
</svg>
