<?xml version="1.0" encoding="utf-8"?>
<!-- Generator: Adobe Illustrator 21.1.0, SVG Export Plug-In . SVG Version: 6.00 Build 0)  -->
<svg version="1.1" id="Layer_1" xmlns="http://www.w3.org/2000/svg" xmlns:xlink="http://www.w3.org/1999/xlink" x="0px" y="0px"
	 viewBox="0 0 360 360" enable-background="new 0 0 360 360" xml:space="preserve">
<g>
	<path fill="#EC2B3A" d="M324,180c0-79.523-64.477-144-144-144c-79.532,0-144,64.477-144,144c0,79.541,64.468,144,144,144
		C259.523,324,324,259.541,324,180L324,180z M112.819,153.97h30.876v92.848h-30.876V153.97L112.819,153.97z M145.717,125.231
		c0,8.912-6.697,16.049-17.464,16.049h-0.202c-10.354,0-17.051-7.137-17.051-16.049c0-9.106,6.909-16.049,17.455-16.049
		C139.02,109.182,145.523,116.125,145.717,125.231L145.717,125.231z M255,246.818h-30.867v-49.675
		c0-12.481-4.465-21.007-15.645-21.007c-8.517,0-13.605,5.766-15.837,11.304c-0.818,1.986-1.02,4.728-1.02,7.523v51.855h-30.858
		c0,0,0.395-84.146,0-92.848h30.858v13.149c4.113-6.346,11.444-15.328,27.827-15.328c20.301,0,35.542,13.254,35.542,41.783V246.818
		L255,246.818z"/>
</g>
</svg>
