<?xml version="1.0" encoding="utf-8"?>
<!-- Generator: Adobe Illustrator 22.1.0, SVG Export Plug-In . SVG Version: 6.00 Build 0)  -->
<svg version="1.1" id="Layer_1" xmlns="http://www.w3.org/2000/svg" xmlns:xlink="http://www.w3.org/1999/xlink" x="0px" y="0px"
	 viewBox="0 0 360 360" style="enable-background:new 0 0 360 360;" xml:space="preserve">
<style type="text/css">
	.st0{fill:#BCBEC0;}
</style>
<g>
	<path class="st0" d="M324,181c0-79.5-64.5-144-144-144S36,101.5,36,181c0,79.5,64.5,144,144,144S324,260.5,324,181L324,181z
		 M248.1,153c0,38-21.2,66.5-52.3,66.5c-10.5,0-20.3-5.6-23.7-12.1c0,0-5.6,22.3-6.8,26.7c-4.2,15.3-16.6,30.5-17.5,31.7
		c-0.7,0.9-2.2,0.6-2.3-0.6c-0.3-1.9-3.4-21.2,0.3-36.9c1.9-7.9,12.5-52.9,12.5-52.9s-3.1-6.2-3.1-15.3c0-14.4,8.3-25.1,18.7-25.1
		c8.8,0,13.1,6.6,13.1,14.6c0,8.9-5.6,22.1-8.6,34.4c-2.4,10.3,5.2,18.7,15.3,18.7c18.4,0,30.8-23.6,30.8-51.6
		c0-21.3-14.3-37.2-40.4-37.2c-29.4,0-47.8,22-47.8,46.5c0,8.5,2.5,14.4,6.4,19c1.8,2.1,2,3,1.4,5.4c-0.5,1.8-1.5,6.1-2,7.8
		c-0.6,2.5-2.6,3.3-4.9,2.4c-13.6-5.5-19.9-20.4-19.9-37.1c0-27.5,23.2-60.6,69.3-60.6C223.7,97.4,248.1,124.2,248.1,153L248.1,153z
		"/>
</g>
</svg>
