<?xml version="1.0" encoding="utf-8"?>
<!-- Generator: Adobe Illustrator 22.1.0, SVG Export Plug-In . SVG Version: 6.00 Build 0)  -->
<svg version="1.1" id="Layer_1" xmlns="http://www.w3.org/2000/svg" xmlns:xlink="http://www.w3.org/1999/xlink" x="0px" y="0px"
	 viewBox="0 0 360 360" style="enable-background:new 0 0 360 360;" xml:space="preserve">
<style type="text/css">
	.st0{fill:#BCBEC0;}
</style>
<g>
	<path class="st0" d="M324,181c0-79.5-64.5-144-144-144c-79.5,0-144,64.5-144,144c0,79.5,64.5,144,144,144
		C259.5,325,324,260.5,324,181L324,181z M192.6,133.2v17.7h27l-3.1,30.1h-23.9c0,38.2,0,85.1,0,85.1h-35.4c0,0,0-46.5,0-85.1h-16.8
		v-30.1h16.8v-19.5c0-13.9,6.6-35.7,35.7-35.7l26.2,0.1V125c0,0-15.9,0-19,0C197,125,192.6,126.5,192.6,133.2L192.6,133.2z"/>
</g>
</svg>
