<?xml version="1.0" encoding="utf-8"?>
<!-- Generator: Adobe Illustrator 22.1.0, SVG Export Plug-In . SVG Version: 6.00 Build 0)  -->
<svg version="1.1" id="Layer_1" xmlns="http://www.w3.org/2000/svg" xmlns:xlink="http://www.w3.org/1999/xlink" x="0px" y="0px"
	 viewBox="0 0 360 360" style="enable-background:new 0 0 360 360;" xml:space="preserve">
<style type="text/css">
	.st0{fill:#BCBEC0;}
</style>
<g>
	<path class="st0" d="M324,181c0-79.5-64.5-144-144-144c-79.5,0-144,64.5-144,144c0,79.5,64.5,144,144,144
		C259.5,325,324,260.5,324,181L324,181z M161.1,192.4l37.6,33.4c4.1-2.5,8.9-4,14-4c14.6,0,26.4,11.8,26.4,26.4
		c0,14.6-11.8,26.4-26.4,26.4c-14.6,0-26.4-11.8-26.4-26.4c0-4,0.9-7.9,2.5-11.3l-37.8-33.5c-4,2.5-8.7,3.9-13.8,3.9
		c-14.6,0-26.4-11.8-26.4-26.4s11.8-26.4,26.4-26.4c5.2,0,10,1.5,14.1,4.1l37.4-33.8c-1.6-3.4-2.5-7.2-2.5-11.2
		c0-14.6,11.8-26.4,26.4-26.4c14.6,0,26.4,11.8,26.4,26.4c0,14.6-11.8,26.4-26.4,26.4c-5.2,0-10.1-1.5-14.1-4.1l-37.4,33.8
		c1.6,3.4,2.5,7.2,2.5,11.2C163.7,185,162.8,188.9,161.1,192.4L161.1,192.4z"/>
</g>
</svg>
