<?xml version="1.0" encoding="utf-8"?>
<!-- Generator: Adobe Illustrator 22.1.0, SVG Export Plug-In . SVG Version: 6.00 Build 0)  -->
<svg version="1.1" id="Layer_1" xmlns="http://www.w3.org/2000/svg" xmlns:xlink="http://www.w3.org/1999/xlink" x="0px" y="0px"
	 viewBox="0 0 360 360" style="enable-background:new 0 0 360 360;" xml:space="preserve">
<style type="text/css">
	.st0{fill:#BCBEC0;}
</style>
<g>
	<path class="st0" d="M324,180c0-79.5-64.5-144-144-144c-79.5,0-144,64.5-144,144c0,79.5,64.5,144,144,144
		C259.5,324,324,259.5,324,180L324,180z M257.6,250.8c0,4.9-2.3,7.2-7.1,7.2c-47.2,0-94.3,0-141.5,0c-4.9,0-7.1-2.4-7.1-7.4
		c0-23.5,0-47,0-70.5c0-23.4,0-46.8,0-70.1c0-2.8,0.4-5.4,3.2-6.7c1.2-0.6,2.7-0.9,4-0.9c47.2,0,94.3,0,141.5,0
		c4.8,0,7.1,2.4,7.1,7.2C257.6,156.6,257.6,203.7,257.6,250.8L257.6,250.8z M117.8,242.1c41.4,0,82.6,0,124,0c0-23.2,0-46.3,0-69.5
		c-5.6,0-11,0-16.6,0c5,27.7-16.2,51.7-41.4,53.6c-13.3,1-25.2-2.7-35.1-11.8c-12.2-11.2-17-25.3-14.6-41.7c-5.5,0-11,0-16.4,0
		C117.8,195.9,117.8,219,117.8,242.1L117.8,242.1z M211.1,148.9c10.3,0,20.4,0,30.7,0c0-10.4,0-20.6,0-30.8c-10.3,0-20.5,0-30.7,0
		C211.1,128.4,211.1,138.6,211.1,148.9L211.1,148.9z M210.8,180.2c0-17.2-13.7-31-31-31.1c-17.2,0-31,13.7-31.1,31
		c0,17.2,13.7,31,31,31.1C196.9,211.2,210.7,197.4,210.8,180.2L210.8,180.2z"/>
</g>
</svg>
