<?xml version="1.0" encoding="utf-8"?>
<!-- Generator: Adobe Illustrator 21.1.0, SVG Export Plug-In . SVG Version: 6.00 Build 0)  -->
<svg version="1.1" id="Layer_1" xmlns="http://www.w3.org/2000/svg" xmlns:xlink="http://www.w3.org/1999/xlink" x="0px" y="0px"
	 viewBox="0 0 360 360" enable-background="new 0 0 360 360" xml:space="preserve">
<g>
	<path fill="#FFFFFF" d="M324,181c0-79.523-64.468-144-144-144c-79.523,0-144,64.477-144,144c0,79.541,64.477,144,144,144
		C259.532,325,324,260.541,324,181L324,181z M235.906,147.59c0,9.063-2.177,17.618-6.031,25.165l-49.409,96.803
		c0,0-49.815-97.605-50.01-98.016c-3.481-7.244-5.43-15.376-5.43-23.952c0-30.622,24.824-55.44,55.44-55.44
		C211.088,92.15,235.906,116.968,235.906,147.59L235.906,147.59z M213.73,147.59c0-18.364-14.9-33.264-33.264-33.264
		c-18.37,0-33.264,14.9-33.264,33.264c0,18.365,14.894,33.264,33.264,33.264C198.83,180.854,213.73,165.955,213.73,147.59
		L213.73,147.59z"/>
</g>
</svg>
