<?xml version="1.0" encoding="utf-8"?>
<!-- Generator: Adobe Illustrator 21.1.0, SVG Export Plug-In . SVG Version: 6.00 Build 0)  -->
<svg version="1.1" id="Layer_1" xmlns="http://www.w3.org/2000/svg" xmlns:xlink="http://www.w3.org/1999/xlink" x="0px" y="0px"
	 viewBox="0 0 360 360" enable-background="new 0 0 360 360" xml:space="preserve">
<g>
	<path fill="#EC2B3A" d="M323.999,180c0-79.529-64.471-144-144-144C100.471,36,36,100.471,36,180s64.471,144,143.999,144
		C259.528,324,323.999,259.529,323.999,180L323.999,180z M217.566,151.744c-18.029,0.941-33.706,6.407-46.434,18.754
		c-12.86,12.475-18.73,27.761-17.125,46.711c-7.047-0.873-13.466-1.833-19.92-2.377c-2.23-0.188-4.875,0.079-6.763,1.145
		c-6.268,3.536-12.277,7.53-19.399,11.981c1.306-5.91,2.152-11.086,3.65-16.064c1.101-3.659,0.591-5.695-2.78-8.078
		c-21.642-15.28-30.765-38.147-23.937-61.689c6.316-21.779,21.827-34.987,42.903-41.873c28.767-9.396,61.096,0.189,78.589,23.028
		C212.668,131.532,216.542,140.792,217.566,151.744L217.566,151.744z M260.946,244.412c-5.557,4.932-7.557,8.99-3.992,15.491
		c0.659,1.2,0.734,2.72,1.116,4.236c-5.709-2.542-10.946-6.356-16.521-6.938c-5.554-0.58-11.392,2.623-17.203,3.218
		c-17.7,1.811-33.556-3.122-46.631-15.214c-24.867-23-21.314-58.267,7.456-77.115c25.57-16.752,63.07-11.167,81.097,12.076
		C282.001,200.449,280.152,227.373,260.946,244.412L260.946,244.412z M241.552,194.801c0.141-3.819-2.821-6.972-6.574-6.998
		c-3.526-0.025-6.523,2.862-6.666,6.425c-0.153,3.81,2.808,6.939,6.579,6.948C238.538,201.188,241.419,198.43,241.552,194.801
		L241.552,194.801z M199.851,194.791c0.146-3.8-2.911-6.987-6.717-7.003c-3.767-0.017-6.924,3.215-6.792,6.959
		c0.123,3.577,3.136,6.47,6.745,6.475C196.721,201.226,199.713,198.381,199.851,194.791L199.851,194.791z M169.755,144.283
		c0.081,4.481,3.768,7.987,8.342,7.932c4.586-0.055,8.064-3.598,8.02-8.174c-0.038-4.491-3.708-8.034-8.235-7.951
		C173.434,136.172,169.676,139.96,169.755,144.283L169.755,144.283z M134.592,144.408c0.166-4.306-3.566-8.185-7.997-8.315
		c-4.538-0.133-8.27,3.334-8.402,7.806c-0.134,4.531,3.332,8.162,7.902,8.279C130.626,152.292,134.424,148.82,134.592,144.408
		L134.592,144.408z"/>
</g>
</svg>
