<?xml version="1.0" encoding="utf-8"?>
<!-- Generator: Adobe Illustrator 21.1.0, SVG Export Plug-In . SVG Version: 6.00 Build 0)  -->
<svg version="1.1" id="Layer_1" xmlns="http://www.w3.org/2000/svg" xmlns:xlink="http://www.w3.org/1999/xlink" x="0px" y="0px"
	 viewBox="0 0 360 360" enable-background="new 0 0 360 360" xml:space="preserve">
<g>
	<path fill="#FFFFFF" d="M324,181c0-79.523-64.468-144-144-144c-79.523,0-144,64.477-144,144c0,79.541,64.477,144,144,144
		C259.532,325,324,260.541,324,181L324,181z M161.063,192.396l37.649,33.375c4.061-2.543,8.859-4.018,14.004-4.018
		c14.597,0,26.429,11.832,26.429,26.429c0,14.596-11.832,26.429-26.429,26.429c-14.596,0-26.429-11.833-26.429-26.429
		c0-4.047,0.913-7.88,2.539-11.309l-37.756-33.469c-4.014,2.46-8.734,3.879-13.786,3.879c-14.597,0-26.43-11.833-26.43-26.429
		c0-14.596,11.833-26.429,26.43-26.429c5.177,0,10.004,1.495,14.081,4.068l37.389-33.816c-1.579-3.389-2.467-7.165-2.467-11.151
		c0-14.596,11.833-26.429,26.429-26.429c14.597,0,26.429,11.833,26.429,26.429c0,14.597-11.832,26.429-26.429,26.429
		c-5.206,0-10.056-1.511-14.147-4.11l-37.357,33.786c1.601,3.407,2.5,7.209,2.5,11.223
		C163.712,184.993,162.759,188.909,161.063,192.396L161.063,192.396z"/>
</g>
</svg>
