<?xml version="1.0" encoding="utf-8"?>
<!-- Generator: Adobe Illustrator 21.1.0, SVG Export Plug-In . SVG Version: 6.00 Build 0)  -->
<svg version="1.1" id="Layer_1" xmlns="http://www.w3.org/2000/svg" xmlns:xlink="http://www.w3.org/1999/xlink" x="0px" y="0px"
	 viewBox="0 0 360 360" enable-background="new 0 0 360 360" xml:space="preserve">
<g>
	<path d="M181.459,37.007C101.05,36.25,35.987,101.372,36,181.025C36.012,259.757,99.748,324.949,180.07,325
		c79.244-0.12,143.24-63.844,143.905-142.676C324.658,101.468,259.535,37.741,181.459,37.007L181.459,37.007z M260.723,152.057
		c-0.252,3.129-0.948,6.175-1.87,9.17c-1.546,5.02-3.7,9.782-6.171,14.405c-3.838,7.181-8.322,13.951-13.176,20.475
		c-7.587,10.198-15.641,20.01-24.456,29.178c-5.285,5.497-10.883,10.65-17.061,15.143c-4.541,3.303-9.319,6.187-14.6,8.176
		c-3.228,1.215-6.549,2.001-9.993,2.238c-4.573,0.315-8.591-1.102-12.149-3.931c-2.088-1.66-3.852-3.628-5.416-5.779
		c-3.3-4.537-5.778-9.522-7.656-14.775c-1.353-3.786-2.347-7.702-3.49-11.563c-3.375-11.412-6.722-22.832-10.125-34.236
		c-1.463-4.902-3.207-9.706-5.583-14.256c-0.921-1.764-1.955-3.457-3.231-4.991c-1.008-1.212-2.132-2.291-3.563-3.003
		c-1.489-0.741-2.978-0.894-4.483-0.041c-1.857,1.053-3.737,2.066-5.574,3.153c-1.501,0.887-2.953,1.859-4.429,2.789
		c-0.248,0.157-0.508,0.294-0.835,0.483c-2.596-3.071-5.153-6.096-7.771-9.193c0.289-0.277,0.506-0.513,0.75-0.716
		c7.54-6.275,15.061-12.574,22.634-18.81c4.487-3.694,9.168-7.133,14.225-10.024c2.485-1.42,5.019-2.793,7.831-3.412
		c7.245-1.593,13.537,0.051,18.478,5.817c2.283,2.665,3.753,5.793,4.896,9.083c1.109,3.189,1.806,6.478,2.357,9.804
		c0.614,3.704,1.25,7.406,1.887,11.106c0.688,3.997,1.382,7.994,2.085,11.988c1.436,8.154,3.375,16.177,6.327,23.929
		c0.772,2.027,1.686,3.995,2.912,5.792c0.523,0.766,1.113,1.505,1.774,2.154c1.711,1.679,3.432,1.934,5.48,0.703
		c1.176-0.706,2.281-1.573,3.295-2.501c2.406-2.203,4.422-4.759,6.36-7.372c4.42-5.959,8.334-12.227,11.431-18.983
		c1.041-2.273,1.912-4.613,2.297-7.101c0.323-2.088,0.464-4.189,0.072-6.284c-0.681-3.64-2.887-5.849-6.452-6.726
		c-2.28-0.56-4.598-0.518-6.91-0.308c-2.919,0.265-5.735,1.011-8.5,1.964c-0.19,0.066-0.392,0.094-0.67,0.158
		c0.012-0.241-0.017-0.422,0.034-0.576c2.448-7.362,5.72-14.292,10.746-20.287c6.083-7.257,13.783-11.788,23.075-13.615
		c2.779-0.546,5.582-0.827,8.415-0.927c2.322-0.082,4.633-0.051,6.934,0.232c4.594,0.565,8.851,1.982,12.411,5.083
		c2.653,2.31,4.439,5.202,5.623,8.483c1.099,3.046,1.631,6.205,1.873,9.43C260.974,146.414,260.95,149.237,260.723,152.057
		L260.723,152.057z"/>
</g>
</svg>
