<?xml version="1.0" encoding="utf-8"?>
<!-- Generator: Adobe Illustrator 22.1.0, SVG Export Plug-In . SVG Version: 6.00 Build 0)  -->
<svg version="1.1" id="Layer_1" xmlns="http://www.w3.org/2000/svg" xmlns:xlink="http://www.w3.org/1999/xlink" x="0px" y="0px"
	 viewBox="0 0 360 360" style="enable-background:new 0 0 360 360;" xml:space="preserve">
<style type="text/css">
	.st0{fill:#BCBEC0;}
</style>
<g>
	<path class="st0" d="M324,180c0-79.5-64.5-144-144-144c-79.5,0-144,64.5-144,144c0,79.5,64.5,144,144,144
		C259.5,324,324,259.5,324,180L324,180z M112.8,154h30.9v92.8h-30.9L112.8,154L112.8,154z M145.7,125.2c0,8.9-6.7,16-17.5,16h-0.2
		c-10.4,0-17.1-7.1-17.1-16c0-9.1,6.9-16,17.5-16C139,109.2,145.5,116.1,145.7,125.2L145.7,125.2z M255,246.8h-30.9v-49.7
		c0-12.5-4.5-21-15.6-21c-8.5,0-13.6,5.8-15.8,11.3c-0.8,2-1,4.7-1,7.5v51.9h-30.9c0,0,0.4-84.1,0-92.8h30.9v13.1
		c4.1-6.3,11.4-15.3,27.8-15.3c20.3,0,35.5,13.3,35.5,41.8L255,246.8L255,246.8z"/>
</g>
</svg>
